PathFileType	4	(X/Y/Z)	E:\Qualisys_Data\Carbon_Farble_Plate\Data\Amateur_Runner\S2\T2\S2T2V23_c3d.trc
DataRate	CameraRate	NumFrames	NumMarkers	Units	OrigDataRate	OrigDataStartFrame	OrigNumFrames
200.000000	200.000000	4	39	mm	200.000000	114	306
Frame#	Time	LSHO			RSHO			LICST			RICST			LASIS			LHEEL			RASIS			LTROC			RTROC			SACR			LTH1			LSK4			LTH2			LTH3			RHM5			LSK2			LTH4			RTH1			LTOE			RTH2			RTH3			RTH4			LLEP			RLEP			LSK1			LSK3			RSK1			LHM5			RSK2			LFT1			RSK3			RSK4			LLME			RLME			RTOE			RHEEL			RFT1			RFT2			LFT2			
		X1	Y1	Z1	X2	Y2	Z2	X3	Y3	Z3	X4	Y4	Z4	X5	Y5	Z5	X6	Y6	Z6	X7	Y7	Z7	X8	Y8	Z8	X9	Y9	Z9	X10	Y10	Z10	X11	Y11	Z11	X12	Y12	Z12	X13	Y13	Z13	X14	Y14	Z14	X15	Y15	Z15	X16	Y16	Z16	X17	Y17	Z17	X18	Y18	Z18	X19	Y19	Z19	X20	Y20	Z20	X21	Y21	Z21	X22	Y22	Z22	X23	Y23	Z23	X24	Y24	Z24	X25	Y25	Z25	X26	Y26	Z26	X27	Y27	Z27	X28	Y28	Z28	X29	Y29	Z29	X30	Y30	Z30	X31	Y31	Z31	X32	Y32	Z32	X33	Y33	Z33	X34	Y34	Z34	X35	Y35	Z35	X36	Y36	Z36	X37	Y37	Z37	X38	Y38	Z38	X39	Y39	Z39	

115	0.57	-805.9486694335938	1431.87158203125	-474.218017578125	-787.1992797851562	1428.6181640625	-156.3416137695312	-863.393798828125	978.3475952148438	-451.3369445800781	-832.16162109375	958.2926635742188	-147.7915496826172	-804.1384887695312	930.6787109375	-440.9735412597656	-1169.052734375	135.065185546875	-298.1310424804688	-772.197021484375	915.3599243164062	-177.8510894775391	-937.675048828125	855.9743041992188	-440.3828735351562	-911.901123046875	852.0156860351562	-144.3028564453125	-934.1491088867188	1012.247863769531	-290.2345275878906	-831.81103515625	610.252197265625	-455.3657531738281	-1037.39697265625	293.6371459960938	-403.2709350585938	-912.71728515625	614.799560546875	-448.02685546875	-836.1473999023438	509.4340209960938	-427.2960815429688	-1086.446533203125	347.1868286132812	-155.2449035644531	-983.9735717773438	375.4925537109375	-426.2086181640625	-918.6248779296876	518.4712524414062	-419.28125	-675.9525146484375	649.2667846679688	-129.7533416748047	-938.921875	64.17459869384766	-317.4288330078125	-749.0546264648438	619.4110107421875	-120.5783920288086	-639.4888305664062	555.0697631835938	-144.2450256347656	-716.9148559570312	528.1774291992188	-139.8295440673828	-882.1981811523438	466.540771484375	-422.6203918457031	-683.834716796875	509.2505187988281	-136.268798828125	-918.1922607421876	334.1325988769531	-414.5145263671875	-971.2549438476562	251.35400390625	-395.2950439453125	-766.7188110351562	448.5652160644531	-148.7229614257812	-997.3280639648438	61.30253219604492	-380.2781372070312	-773.180908203125	529.4943237304688	-141.1597595214844	-1166.604370117188	105.2254486083984	-276.0320434570312	-868.251220703125	442.1331176757812	-160.6121673583984	-870.6437377929688	521.9266967773438	-156.3397521972656	-1100.833862304688	131.0602569580078	-361.0004577636719	-1053.04443359375	465.3548889160156	-189.1129302978516	-1056.8828125	275.2915649414062	-209.1291809082031	-1074.28125	521.0670166015625	-249.6422576904297	-1101.373779296875	499.2125854492188	-279.0967712402344	-1105.885009765625	519.2030639648438	-226.0898590087891	-1175.931396484375	103.0966186523438	-328.939697265625
116	0.575	-782.1351318359375	1436.43212890625	-472.9034729003906	-769.05126953125	1432.89599609375	-155.4136199951172	-839.905029296875	981.4061889648438	-451.7802429199219	-810.2452392578125	963.0974731445312	-147.5787811279297	-781.46728515625	933.1669311523438	-440.8942260742188	-1166.650634765625	140.1295623779297	-298.6499938964844	-750.0648803710938	919.845458984375	-178.2111053466797	-916.42822265625	859.9540405273438	-440.1355285644531	-889.3065185546875	857.2099609375	-143.7876586914062	-911.908447265625	1016.323425292969	-291.5252685546875	-818.5554809570312	614.14111328125	-455.2818603515625	-1032.670288085938	300.2789916992188	-404.3547668457031	-898.6160888671875	621.411865234375	-448.2596740722656	-825.674560546875	513.7315063476562	-427.2049865722656	-1049.1123046875	334.7575073242188	-153.9881286621094	-978.061767578125	381.1376953125	-426.8809814453125	-908.2738647460938	525.0902709960938	-420.2608947753906	-650.4298095703125	658.3522338867188	-130.2360687255859	-938.2543334960938	64.59520721435547	-317.2738342285156	-722.609130859375	626.363525390625	-123.2985534667969	-611.2914428710938	565.4139404296875	-146.1125640869141	-688.0720825195312	535.7120361328125	-141.0099487304688	-874.2537841796875	471.7492370605469	-423.0360717773438	-653.8818359375	518.2722778320312	-137.6210632324219	-912.62744140625	339.0174865722656	-415.6294250488281	-966.8240966796876	257.3505859375	-396.8504943847656	-735.0438232421875	452.7601318359375	-150.2090148925781	-996.6468505859376	61.83026885986328	-380.0706481933594	-744.9020385742188	533.2261962890625	-141.1930694580078	-1164.38037109375	109.9145278930664	-276.7669372558594	-836.0035400390625	441.2547912597656	-160.8350524902344	-842.3386840820312	520.7670288085938	-156.1143646240234	-1097.127807617188	136.4181671142578	-362.3058166503906	-1022.660705566406	455.3426208496094	-188.5040130615234	-1014.375671386719	265.6705932617188	-208.1372985839844	-1047.459106445312	509.4797058105469	-248.715576171875	-1072.944580078125	486.3843078613281	-278.2306213378906	-1078.816650390625	505.7148132324219	-225.6184692382812	-1173.728393554688	107.8660049438477	-329.4330444335938
117	0.58	-758.3270263671875	1441.255126953125	-471.7395935058594	-751.2611083984375	1437.046752929688	-154.7304382324219	-816.2178955078125	984.8190307617188	-452.1277770996094	-787.6908569335938	968.2658081054688	-148.1221160888672	-758.841064453125	935.7938232421876	-441.3554992675781	-1163.138305664062	145.4856567382812	-299.6079406738281	-728.0691528320312	924.6055297851562	-178.7605133056641	-895.0116577148438	864.736572265625	-439.5047302246094	-866.2830810546875	862.577392578125	-143.4449005126953	-889.493408203125	1020.18359375	-292.8140869140625	-804.4089965820312	619.1033325195312	-454.7662353515625	-1027.208129882812	307.2691955566406	-405.31982421875	-884.6677856445312	627.880859375	-448.41845703125	-813.8712768554688	517.88916015625	-427.3357849121094	-1011.262023925781	322.791748046875	-153.2540740966797	-971.5885620117188	387.7345275878906	-427.7449340820312	-896.428466796875	531.2109375	-420.3782958984375	-625.53173828125	667.1309204101562	-131.4930572509766	-937.26953125	65.15103912353516	-317.4602355957031	-696.69287109375	633.4119873046875	-124.5346527099609	-583.6279907226562	575.4318237304688	-147.4245452880859	-659.5857543945312	543.5081787109375	-141.3542633056641	-865.043701171875	476.9801940917969	-423.2461242675781	-625.0549926757812	527.1715087890625	-138.9299926757812	-906.7972412109376	344.1894226074219	-416.8658752441406	-962.0704345703124	263.1819152832031	-398.9745178222656	-703.4000854492188	457.225341796875	-150.3544158935547	-995.4695434570312	62.80569458007812	-380.012451171875	-717.540283203125	536.7299194335938	-141.87255859375	-1161.205932617188	115.7439727783203	-277.7181091308594	-803.8340454101562	440.7240600585938	-160.6539154052734	-814.3825073242188	519.6519165039062	-155.8199005126953	-1092.5458984375	142.5450286865234	-364.4828186035156	-992.0493774414062	444.5543518066406	-187.9238433837891	-972.012451171875	255.9243774414062	-206.4874725341797	-1020.219665527344	497.3969421386719	-247.876220703125	-1043.574584960938	472.9058837890625	-277.5405883789062	-1051.171020507812	491.6682434082031	-225.1858978271484	-1170.95361328125	113.1379165649414	-329.9600524902344
118	0.585	-734.4934692382812	1446.551513671875	-470.207763671875	-733.1080322265625	1442.0009765625	-153.8643798828125	-792.3533935546875	988.2059326171876	-452.0668640136719	-765.1097412109375	973.954833984375	-148.4862823486328	-735.7147827148438	938.4799194335938	-441.4156188964844	-1158.560791015625	152.2771911621094	-300.8680419921875	-705.8482666015625	929.8934326171876	-179.0127868652344	-874.06689453125	869.2669067382812	-438.9357299804688	-843.173583984375	867.9116821289062	-142.2886047363281	-867.2853393554688	1024.206787109375	-294.0382690429688	-789.31201171875	622.607177734375	-453.6827697753906	-1021.352844238281	314.7921447753906	-406.4779968261719	-870.391357421875	633.8193969726562	-449.2752990722656	-801.6618041992188	522.8709716796875	-427.7068481445312	-972.6497192382812	311.2503662109375	-152.4957885742188	-965.04931640625	394.5986328125	-428.606201171875	-884.0828247070312	537.4076538085938	-421.4697570800781	-600.8427124023438	675.9805297851562	-132.3221588134766	-936.4563598632812	65.28910827636719	-318.5140991210938	-671.2909545898438	640.5431518554688	-126.0577545166016	-556.754150390625	585.118896484375	-148.87744140625	-631.370849609375	550.90673828125	-141.4692535400391	-855.8956909179688	482.3255615234375	-423.6536254882812	-597.3754272460938	535.65234375	-140.4693450927734	-900.310302734375	350.7335205078125	-418.6122436523438	-956.5529174804688	269.6397399902344	-400.4249572753906	-672.6611938476562	461.9582824707031	-150.2659454345703	-994.1459350585938	64.03617095947266	-380.3282165527344	-690.9900512695312	540.234130859375	-142.4120788574219	-1156.994995117188	122.3595199584961	-278.9009094238281	-772.3048095703125	439.8197631835938	-160.5955352783203	-786.8331298828125	518.0304565429688	-155.5003051757812	-1086.99169921875	148.6544494628906	-366.0228271484375	-960.8973999023438	433.9580383300781	-186.9386444091797	-928.3822631835938	246.7717742919922	-204.9289245605469	-992.7258911132812	485.0062255859375	-247.1984558105469	-1014.396667480469	458.5919189453125	-277.3268737792969	-1022.946899414062	476.6395263671875	-224.8843078613281	-1167.084594726562	120.1766052246094	-331.5131530761719
